<svg xmlns="http://www.w3.org/2000/svg" xmlns:xlink="http://www.w3.org/1999/xlink" width="1587" zoomAndPan="magnify" viewBox="0 0 1190.25 1683.749949" height="2245" preserveAspectRatio="xMidYMid meet" version="1.0"><defs><g/><clipPath id="c8ff5a037e"><path d="M 153.46875 181.921875 L 1036.316406 181.921875 L 1036.316406 1209.613281 L 153.46875 1209.613281 Z M 153.46875 181.921875 " clip-rule="nonzero"/></clipPath><clipPath id="76477496c3"><path d="M 594.894531 1209.234375 L 153.46875 952.40625 L 153.46875 438.75 L 594.894531 181.921875 L 1036.316406 438.75 L 1036.316406 952.40625 Z M 594.894531 1209.234375 " clip-rule="nonzero"/></clipPath><clipPath id="268ccb548f"><path d="M 207.886719 250.097656 L 982 250.097656 L 982 1141.285156 L 207.886719 1141.285156 Z M 207.886719 250.097656 " clip-rule="nonzero"/></clipPath></defs><g clip-path="url(#c8ff5a037e)"><g clip-path="url(#76477496c3)"><path fill="#18bc9c" d="M 1036.316406 181.921875 L 1036.316406 1209.613281 L 153.46875 1209.613281 L 153.46875 181.921875 Z M 1036.316406 181.921875 " fill-opacity="1" fill-rule="nonzero"/></g></g><g clip-path="url(#268ccb548f)"><path fill="#2c3e50" d="M 981.648438 508.621094 L 981.648438 498.710938 C 978.808594 498.65625 976.25 498.433594 975.46875 497.484375 L 960.550781 506.949219 C 946.855469 511.457031 955.316406 503.722656 957.378906 500.4375 L 964.558594 497.597656 L 953.757812 500.492188 C 954.929688 499.546875 956.597656 498.710938 958.546875 497.765625 C 941.289062 503.5 954.371094 490.75 943.125 491.308594 C 917.464844 503.554688 943.960938 495.703125 941.957031 498.988281 C 936.335938 502.328125 927.207031 511.179688 908.613281 517.859375 C 906.105469 513.015625 873.820312 524.261719 872.039062 518.304688 L 865.078125 523.761719 C 846.375 530.554688 854.113281 523.871094 851.773438 521.757812 C 867.195312 508.507812 889.183594 508.230469 902.601562 498.210938 C 926.203125 489.246094 902.097656 504.835938 934.941406 489.691406 L 969.125 469.652344 C 954.203125 474.773438 962.109375 468.816406 967.953125 464.195312 L 966.230469 463.195312 L 956.765625 469.207031 C 928.875 482.066406 948.804688 470.375 952.3125 467.59375 L 912.453125 488.246094 C 906.832031 494.3125 943.347656 479.226562 920.636719 492.53125 C 905.382812 493.8125 873.207031 510.566406 869.421875 505.113281 C 885.066406 497.320312 875.824219 503.441406 887.960938 498.375 C 897.867188 491.140625 864.246094 504.613281 875.488281 495.203125 C 886.234375 492.363281 903.65625 487.800781 924.199219 474.996094 L 892.800781 487.855469 C 896.921875 484.015625 909.113281 478.949219 909.78125 477.890625 C 914.625 472.9375 878.328125 493.535156 884.5625 486.351562 C 890.296875 482.957031 896.644531 478.558594 903.769531 475.777344 C 902.988281 471.378906 892.96875 478.613281 876.378906 482.066406 C 877.996094 485.292969 831.625 507.617188 825 506.617188 C 827.617188 499.488281 800.339844 508.507812 837.191406 486.855469 L 816.371094 494.203125 C 845.707031 481.84375 824.832031 486.410156 828.953125 482.566406 C 860.347656 466.925781 831.511719 490.195312 882.894531 465.644531 C 886.34375 460.132812 902.824219 453.953125 917.074219 448.386719 C 910.617188 447.273438 879.941406 464.585938 858.457031 472.992188 C 871.371094 466.8125 859.570312 465.308594 888.292969 454.066406 C 888.792969 450.28125 855.949219 465.367188 860.847656 460.355469 C 873.652344 454.621094 890.019531 447.273438 906.164062 439.3125 C 895.363281 444.15625 907.164062 435.136719 907.886719 434.191406 C 902.097656 437.585938 880.609375 445.992188 890.742188 444.265625 C 865.746094 455.457031 886.902344 438.8125 866.191406 448.886719 C 894.640625 434.972656 869.476562 440.648438 880.054688 432.355469 C 812.917969 464.753906 908.109375 424.949219 853.222656 452.285156 C 828.671875 459.6875 845.375 441.484375 812.976562 450 C 823.441406 438.980469 838.691406 437.699219 862.964844 424.894531 C 876.046875 424.226562 856.785156 434.804688 870.648438 432.96875 C 880.277344 423.113281 869.921875 419.382812 847.710938 426.121094 C 845.316406 424.617188 858.789062 416.65625 872.09375 408.640625 L 866.304688 405.300781 C 863.742188 406.859375 861.574219 408.363281 859.234375 410.199219 C 850.71875 412.425781 857.675781 406.914062 856.898438 405.300781 C 842.644531 410.867188 841.476562 415.765625 828.339844 419.273438 C 831.957031 416.488281 834.015625 413.148438 848.9375 406.46875 L 851.105469 405.914062 C 842.535156 407.472656 847.933594 403.574219 855.394531 399.066406 L 853 397.671875 C 836.746094 406.136719 813.308594 413.984375 805.570312 415.097656 C 820.601562 408.363281 807.574219 411.8125 811.75 407.972656 C 836.019531 395.113281 820.601562 408.417969 837.746094 401.125 L 839.640625 395.113281 L 836.1875 397.839844 L 810.191406 404.6875 C 819.65625 404.074219 780.296875 420.832031 776.625 420.886719 C 780.074219 415.375 783.414062 409.863281 811.304688 397.003906 C 783.414062 409.863281 782.578125 405.46875 775.175781 405.578125 C 766.769531 413.316406 751.683594 417.269531 742.332031 420.664062 L 767.773438 402.90625 C 778.015625 403.910156 792.042969 390.046875 811.417969 382.199219 C 814.980469 380.695312 817.875 379.527344 820.265625 378.636719 L 818.707031 377.746094 C 812.695312 379.359375 809.246094 379.691406 814.8125 375.460938 L 810.414062 372.902344 C 800.726562 377.855469 789.871094 382.808594 783.023438 384.089844 L 805.347656 369.949219 L 801.117188 367.5 C 789.261719 372.621094 771.667969 381.195312 761.871094 383.199219 L 741.273438 396.003906 C 713.328125 408.917969 738.9375 391.105469 708.207031 405.632812 C 708.320312 408.363281 732.644531 398.285156 725.019531 404.855469 C 695.738281 419.941406 707.652344 409.417969 691.117188 415.652344 C 701.640625 404.578125 703.140625 405.078125 725.074219 390.101562 C 753.855469 376.242188 770.164062 371.34375 792.710938 362.546875 L 772.894531 351.023438 C 766.4375 354.195312 760.144531 357.371094 754.355469 360.265625 C 748.511719 360.878906 752.183594 358.039062 758.421875 353.695312 L 770.667969 349.742188 L 769.609375 349.132812 C 753.855469 351.191406 739.382812 354.417969 737.878906 348.964844 C 728.359375 349.632812 701.304688 364.160156 679.929688 375.296875 L 673.25 374.292969 L 667.625 377.632812 C 637.621094 391.050781 646.027344 383.3125 645.914062 380.582031 C 658.71875 374.460938 662.394531 374.402344 670.242188 370.507812 C 680.09375 363.328125 675.640625 361.710938 662.003906 366.222656 C 674.863281 360.042969 704.199219 347.738281 696.460938 354.363281 C 693.566406 356.035156 688.722656 358.203125 685.71875 359.929688 L 704.535156 355.921875 C 688.5 358.484375 711.324219 344.34375 738.15625 330.925781 L 736.375 329.871094 C 724.574219 335.605469 715.167969 344.84375 704.144531 344.898438 C 733.425781 326.25 726.132812 325.359375 723.851562 322.578125 L 719.5625 320.074219 C 717.058594 321.742188 713.441406 323.800781 708.375 326.308594 C 690.226562 329.257812 645.527344 354.808594 641.628906 349.410156 C 620.195312 360.597656 630.441406 361.546875 625.597656 366.5 C 613.460938 371.566406 599.933594 378.800781 590.691406 384.871094 C 569.203125 393.277344 549.777344 398.398438 531.015625 405.1875 C 543.207031 400.121094 549.609375 395.667969 556.847656 392.832031 L 517.210938 404.1875 C 532.019531 394.777344 550.667969 385.257812 564.972656 379.636719 C 571.152344 372.511719 533.800781 383.253906 572.320312 364.773438 C 564.195312 363.214844 550.222656 377.078125 539.535156 382.644531 L 537.417969 383.199219 L 542.707031 386.429688 C 498.449219 408.195312 550.945312 375.964844 508.027344 395.558594 C 426.695312 433.523438 530.570312 376.742188 516.152344 379.582031 L 576.273438 355.476562 L 561.914062 358.316406 C 585.515625 349.355469 624.039062 330.925781 649.199219 322.464844 C 648.921875 317.066406 663.5625 302.148438 651.257812 304.429688 C 658.496094 300.421875 665.675781 296.582031 672.800781 292.90625 L 660.277344 285.613281 C 656.214844 289.511719 649.980469 294.6875 645.914062 298.472656 C 645.859375 295.691406 617.300781 309.664062 605.167969 314.671875 L 600.992188 321.351562 C 565.308594 338.109375 595.871094 318.066406 577.109375 324.859375 C 609.285156 310.832031 610.007812 309.773438 642.183594 295.746094 C 627.765625 298.640625 625.375 293.6875 643.742188 281.496094 C 645.46875 280.382812 647.027344 279.492188 648.476562 278.710938 L 620.253906 262.34375 L 618.917969 263.125 C 619.363281 262.789062 619.75 262.511719 620.140625 262.234375 L 617.636719 260.785156 C 606.445312 265.574219 585.070312 276.371094 595.871094 268.246094 C 602.160156 265.460938 608.617188 262.457031 615.242188 259.394531 L 598.652344 250.097656 C 595.535156 251.933594 218.273438 468.59375 257.464844 454.230469 C 225.121094 467.203125 240.707031 467.480469 208.699219 479.5625 L 208.699219 486.019531 C 215.492188 485.40625 221 485.628906 208.699219 493.367188 L 208.699219 501.214844 C 214.65625 497.765625 222.003906 493.980469 229.183594 491.195312 C 237.867188 488.914062 249.390625 484.960938 250.171875 486.574219 C 237.3125 492.753906 230.910156 494.425781 226.511719 495.59375 C 226.511719 495.59375 225.230469 500.546875 209.589844 508.339844 C 209.3125 508.453125 208.976562 508.5625 208.699219 508.621094 L 208.140625 781.335938 C 232.804688 768.144531 266.539062 753.003906 291.476562 744.707031 C 271.4375 753.671875 273.773438 758.625 260.972656 767.476562 C 242.488281 774.992188 218.996094 793.195312 208.085938 793.695312 L 208.03125 826.316406 C 210.648438 825.316406 213.152344 824.367188 215.546875 823.644531 C 249.113281 810.230469 222.949219 826.316406 233.082031 824.589844 C 214.542969 836.671875 215.15625 831.214844 208.03125 832.160156 L 208.03125 833.386719 L 223.226562 834.554688 C 217.996094 838.0625 212.707031 840.789062 208.03125 842.738281 L 208.03125 847.023438 C 212.59375 845.355469 217.605469 843.351562 222.839844 841.125 C 217.941406 846.078125 224.507812 844.351562 214.542969 851.589844 C 212.707031 852.148438 210.535156 852.980469 207.976562 853.984375 L 207.976562 856.15625 C 211.09375 854.875 214.265625 853.707031 217.4375 852.703125 C 214.097656 854.429688 210.925781 856.15625 207.976562 857.714844 L 207.976562 870.960938 C 213.707031 869.347656 220.109375 866.953125 230.296875 861.277344 C 211.59375 868.066406 240.875 852.925781 243.660156 851.3125 C 247.5 853.984375 276.558594 836.171875 279.507812 837.285156 C 274.886719 847.691406 256.683594 847.859375 247.054688 860.550781 C 237.980469 863.949219 222.726562 869.515625 207.976562 874.46875 L 207.976562 875.917969 C 226.625 873.246094 262.417969 863.28125 272.828125 865.785156 C 236.53125 882.261719 228.90625 879.980469 207.976562 887.160156 L 207.917969 906.421875 L 216.714844 900.855469 C 230.410156 896.347656 221.949219 904.085938 219.886719 907.371094 L 212.707031 910.207031 L 223.507812 907.3125 C 222.335938 908.261719 220.667969 909.09375 218.71875 910.042969 C 235.976562 904.308594 222.894531 917.054688 234.140625 916.5 C 259.800781 904.253906 233.304688 912.101562 235.308594 908.816406 C 240.929688 905.476562 250.058594 896.625 268.652344 889.945312 C 271.160156 894.789062 303.445312 883.542969 305.226562 889.5 L 312.1875 884.042969 C 330.890625 877.253906 323.152344 883.933594 325.492188 886.046875 C 310.070312 899.296875 288.082031 899.574219 274.664062 909.597656 C 251.0625 918.558594 275.167969 902.972656 242.324219 918.113281 L 226.066406 927.632812 L 234.75 932.699219 C 235.085938 932.644531 235.195312 932.753906 235.085938 932.921875 L 236.976562 933.980469 L 264.867188 919.5625 C 270.492188 913.492188 233.972656 928.578125 256.683594 915.273438 C 271.9375 913.992188 304.113281 897.238281 307.898438 902.691406 C 292.257812 910.488281 301.496094 904.363281 289.363281 909.429688 C 279.453125 916.664062 313.078125 903.195312 301.832031 912.601562 C 291.085938 915.441406 273.664062 920.007812 253.121094 932.808594 L 284.519531 919.949219 C 280.398438 923.792969 268.207031 928.855469 267.539062 929.914062 C 262.695312 934.871094 298.992188 914.273438 292.757812 921.453125 C 287.023438 924.847656 280.675781 929.246094 273.550781 932.03125 C 274.332031 936.429688 284.351562 929.191406 300.941406 925.738281 C 299.328125 922.511719 345.699219 900.1875 352.320312 901.191406 C 349.707031 908.316406 376.984375 899.296875 340.132812 920.953125 L 360.949219 913.605469 C 331.613281 925.960938 352.488281 921.398438 348.371094 925.238281 C 316.972656 940.882812 345.808594 917.613281 294.425781 942.160156 C 291.921875 946.113281 282.792969 950.402344 272.550781 954.574219 L 273.773438 955.300781 C 286.355469 949.84375 304.613281 940.378906 318.808594 934.8125 C 305.894531 940.992188 317.695312 942.496094 288.972656 953.742188 C 288.472656 957.527344 321.316406 942.441406 316.417969 947.449219 C 307.285156 951.515625 296.320312 956.46875 284.964844 961.8125 L 287.359375 963.203125 C 311.015625 952.792969 290.640625 968.882812 311.070312 958.972656 C 298.546875 965.097656 296.429688 967.433594 297.042969 968.828125 L 303.390625 972.5 C 358.113281 945.667969 270.992188 981.964844 324.042969 955.578125 C 348.59375 948.175781 331.890625 966.378906 364.289062 957.859375 C 354.382812 968.324219 340.1875 969.996094 318.140625 981.019531 L 322.59375 983.578125 C 324.765625 983.078125 327.105469 982.464844 329.609375 981.6875 C 330.5 982.242188 329.164062 983.746094 326.4375 985.804688 L 338.460938 992.765625 C 341.246094 991.207031 344.363281 989.8125 348.980469 988.589844 C 346.921875 990.203125 345.308594 991.984375 341.46875 994.546875 L 349.707031 999.332031 C 359.167969 995.882812 367.632812 993.433594 371.695312 992.820312 C 356.664062 999.554688 369.691406 996.105469 365.515625 999.945312 C 362.175781 1001.726562 359.613281 1003.007812 357.554688 1003.898438 L 359.78125 1005.179688 L 367.128906 1003.230469 C 357.667969 1003.84375 397.023438 987.085938 400.699219 987.03125 C 397.359375 992.375 394.074219 997.773438 368.078125 1009.964844 C 393.960938 998.273438 394.964844 1002.449219 402.089844 1002.339844 C 410.496094 994.601562 425.582031 990.648438 434.933594 987.253906 L 409.492188 1005.011719 C 402.257812 1004.289062 393.070312 1011.023438 381.492188 1017.816406 L 392.457031 1024.160156 C 393.070312 1023.992188 393.683594 1023.882812 394.238281 1023.769531 L 393.070312 1024.496094 L 401.421875 1029.339844 C 406.710938 1027.167969 411.664062 1025.441406 415.449219 1024.660156 L 436.046875 1011.859375 C 463.992188 998.945312 438.386719 1016.757812 469.113281 1002.226562 C 469.003906 999.5 444.675781 1009.574219 452.300781 1003.007812 C 481.582031 987.921875 469.671875 998.441406 486.203125 992.207031 C 475.683594 1003.285156 474.179688 1002.730469 452.246094 1017.757812 C 435.714844 1025.71875 423.300781 1030.730469 411.441406 1035.238281 L 448.238281 1056.558594 C 460.820312 1051.882812 480.859375 1041.25 497.394531 1032.566406 L 504.074219 1033.570312 L 509.695312 1030.230469 C 539.699219 1016.8125 531.292969 1024.550781 531.40625 1027.277344 C 518.601562 1033.402344 514.929688 1033.457031 507.078125 1037.355469 C 497.226562 1044.535156 501.679688 1046.148438 515.316406 1041.640625 C 502.457031 1047.820312 473.121094 1060.121094 480.859375 1053.496094 C 483.753906 1051.828125 488.597656 1049.65625 491.601562 1047.929688 L 472.789062 1051.9375 C 483.808594 1050.15625 476.515625 1056.28125 462.210938 1064.632812 L 463.324219 1065.242188 C 466.554688 1063.851562 469.835938 1062.90625 473.234375 1062.90625 C 470.785156 1064.464844 468.613281 1065.855469 466.664062 1067.191406 L 483.644531 1077.046875 C 504.40625 1069.085938 532.6875 1054.164062 535.804688 1058.398438 C 557.234375 1047.207031 546.992188 1046.261719 551.835938 1041.308594 C 563.972656 1036.242188 577.5 1029.003906 586.738281 1022.9375 C 608.226562 1014.53125 627.65625 1009.410156 646.417969 1002.617188 C 634.226562 1007.683594 627.824219 1012.136719 620.585938 1014.976562 L 660.222656 1003.621094 C 645.414062 1013.027344 626.765625 1022.546875 612.457031 1028.167969 C 606.28125 1035.292969 643.632812 1024.550781 605.109375 1043.03125 C 613.238281 1044.589844 627.210938 1030.730469 637.898438 1025.164062 L 640.015625 1024.605469 L 634.726562 1021.378906 C 678.980469 999.609375 626.488281 1031.84375 669.40625 1012.246094 C 750.738281 974.28125 646.863281 1031.0625 661.28125 1028.222656 L 601.15625 1052.328125 L 615.519531 1049.488281 C 591.917969 1058.453125 553.394531 1076.878906 528.234375 1085.339844 C 528.398438 1088.511719 523.5 1094.914062 521.832031 1099.203125 L 537.417969 1108.21875 C 546.4375 1104.878906 563.582031 1096.695312 572.320312 1093.078125 L 576.496094 1086.398438 C 612.179688 1069.640625 581.617188 1089.683594 600.378906 1082.890625 C 569.929688 1096.140625 567.644531 1097.867188 540.257812 1109.832031 L 542.59375 1111.226562 C 545.378906 1111.335938 546.882812 1112.117188 546.824219 1113.675781 L 594.089844 1141.0625 L 920.523438 953.460938 C 920.300781 953.519531 920.136719 953.574219 919.96875 953.683594 C 920.246094 953.574219 920.46875 953.460938 920.691406 953.40625 L 976.582031 921.285156 C 969.289062 921.398438 950.53125 925.683594 969.957031 913.828125 C 973.6875 912.378906 977.585938 910.652344 981.035156 909.152344 L 981.035156 902.304688 L 975.414062 905.03125 C 966.898438 907.980469 977.53125 902.304688 981.09375 899.855469 L 981.09375 898.90625 C 981.09375 898.90625 981.035156 898.90625 981.035156 898.90625 C 977.417969 901.746094 962.554688 911.15625 948.246094 916.777344 C 939.5625 919.058594 928.039062 923.011719 927.261719 921.398438 C 940.121094 915.21875 946.523438 913.546875 950.921875 912.378906 C 950.921875 912.378906 952.199219 907.425781 967.84375 899.632812 C 973.742188 897.628906 976.804688 897.070312 981.035156 895.957031 L 981.148438 845.1875 C 980.703125 845.132812 980.257812 845.078125 979.980469 844.910156 C 980.3125 844.574219 980.757812 844.242188 981.148438 843.851562 L 981.59375 621.179688 C 979.699219 621.792969 977.863281 622.40625 976.082031 622.960938 C 951.144531 636.878906 913.289062 654.246094 885.957031 663.265625 C 905.996094 654.304688 903.65625 649.347656 916.460938 640.496094 C 935.667969 632.703125 960.273438 613.332031 970.570312 614.332031 C 961.441406 620.402344 934.941406 633.871094 945.796875 630.976562 C 957.542969 624.519531 970.015625 616.839844 981.703125 609.15625 L 981.761719 576.257812 C 974.746094 579.597656 967.953125 582.492188 961.941406 584.328125 C 928.375 597.746094 954.59375 581.65625 944.40625 583.382812 C 965.726562 569.464844 961.71875 578.816406 973.242188 574.863281 L 954.203125 573.417969 C 965.28125 565.902344 976.917969 562.003906 981.761719 561.949219 L 981.761719 556.996094 C 975.023438 558.777344 965.339844 562.285156 954.648438 566.847656 C 959.546875 561.894531 952.980469 563.621094 962.945312 556.382812 C 967.34375 554.9375 974.132812 552.207031 981.816406 548.980469 L 981.816406 546.140625 C 974.855469 549.703125 967.566406 552.988281 960.050781 555.269531 C 968.566406 550.816406 975.746094 546.863281 981.816406 543.300781 L 981.816406 533.78125 C 970.90625 536.953125 964.503906 536.953125 947.191406 546.695312 C 965.894531 539.90625 936.613281 555.046875 933.828125 556.660156 C 929.988281 553.988281 900.929688 571.804688 897.980469 570.691406 C 902.601562 560.28125 920.804688 560.113281 930.433594 547.421875 C 942.070312 543.078125 964.058594 535.0625 981.816406 529.496094 L 981.816406 526.824219 C 978.085938 528.4375 974.96875 529.941406 972.796875 531.667969 C 955.375 533.449219 915.738281 544.859375 904.714844 542.1875 C 947.300781 522.816406 950.417969 529.328125 981.871094 516.136719 L 981.871094 511.238281 C 979.144531 512.015625 977.695312 512.070312 978.421875 510.847656 C 979.421875 509.898438 980.589844 509.230469 981.648438 508.621094 Z M 581.617188 262.066406 C 586.960938 260.339844 569.039062 273.757812 563.859375 275.984375 C 559.074219 278.042969 575.050781 264.238281 581.617188 262.066406 Z M 464.046875 373.179688 C 446.457031 382.308594 429.980469 389.824219 417.730469 394.222656 C 436.601562 381.472656 410.605469 392.273438 404.707031 393.054688 C 405.984375 391.828125 406.152344 391.160156 405.652344 390.769531 C 407.65625 389.324219 411.21875 387.097656 416.839844 383.757812 L 421.238281 382.585938 C 420.125 381.085938 422.464844 378.132812 425.859375 374.847656 C 432.816406 373.011719 440.722656 370.675781 449.183594 367.890625 C 472.621094 353.417969 470.449219 353.972656 485.980469 343.453125 C 536.082031 323.859375 458.257812 361.824219 484.253906 354.976562 C 450.6875 371.175781 454.917969 367.277344 422.742188 384.035156 C 446.625 374.960938 443.226562 380.472656 464.046875 373.179688 Z M 771.503906 1016.867188 C 769.496094 1018.316406 765.933594 1020.542969 760.3125 1023.882812 L 755.914062 1025.050781 C 757.027344 1026.554688 754.691406 1029.503906 751.292969 1032.789062 C 744.335938 1034.625 736.429688 1036.964844 727.96875 1039.746094 C 704.535156 1054.222656 706.703125 1053.664062 691.171875 1064.1875 C 641.070312 1083.78125 718.894531 1045.816406 692.898438 1052.664062 C 726.464844 1036.464844 722.234375 1040.359375 754.410156 1023.605469 C 730.640625 1032.621094 734.039062 1027.167969 713.21875 1034.460938 C 730.753906 1025.328125 747.285156 1017.816406 759.476562 1013.417969 C 740.605469 1026.164062 766.601562 1015.367188 772.503906 1014.585938 C 771.167969 1015.8125 771 1016.535156 771.503906 1016.867188 Z M 771.503906 1016.867188 " fill-opacity="1" fill-rule="nonzero"/></g><g fill="#ffffff" fill-opacity="1"><g transform="translate(223.11246, 670.495103)"><g><path d="M 30.453125 -52.890625 L 31.609375 -52.890625 C 36.679688 -52.890625 41.082031 -51.847656 44.8125 -49.765625 L 44.8125 -70.578125 L 55.40625 -70.578125 L 55.40625 0 L 44.8125 0 L 44.8125 -1.8125 C 41.1875 0.238281 36.785156 1.265625 31.609375 1.265625 L 30.453125 1.265625 C 26.078125 1.265625 22.070312 0.300781 18.4375 -1.625 C 14.8125 -3.5625 11.921875 -6.3125 9.765625 -9.875 C 7.617188 -13.4375 6.546875 -17.421875 6.546875 -21.828125 L 6.546875 -29.84375 C 6.546875 -36.769531 8.679688 -42.34375 12.953125 -46.5625 C 17.222656 -50.78125 23.054688 -52.890625 30.453125 -52.890625 Z M 17.140625 -29.84375 L 17.140625 -21.828125 C 17.140625 -18.097656 18.40625 -15.082031 20.9375 -12.78125 C 23.476562 -10.476562 26.648438 -9.328125 30.453125 -9.328125 L 31.609375 -9.328125 C 40.410156 -9.328125 44.8125 -13.492188 44.8125 -21.828125 L 44.8125 -29.84375 C 44.8125 -31.519531 44.609375 -33.054688 44.203125 -34.453125 C 43.804688 -35.847656 43.132812 -37.160156 42.1875 -38.390625 C 41.25 -39.617188 39.878906 -40.578125 38.078125 -41.265625 C 36.285156 -41.953125 34.128906 -42.296875 31.609375 -42.296875 L 30.453125 -42.296875 C 25.742188 -42.296875 22.347656 -41.160156 20.265625 -38.890625 C 18.179688 -36.628906 17.140625 -33.613281 17.140625 -29.84375 Z M 17.140625 -29.84375 "/></g></g></g><g fill="#ffffff" fill-opacity="1"><g transform="translate(285.068446, 670.495103)"><g><path d="M 6.546875 -17.640625 C 6.546875 -18.816406 6.75 -20.039062 7.15625 -21.3125 C 7.5625 -22.59375 8.328125 -23.972656 9.453125 -25.453125 C 10.578125 -26.929688 11.988281 -28.242188 13.6875 -29.390625 C 15.382812 -30.535156 17.6875 -31.492188 20.59375 -32.265625 C 23.5 -33.035156 26.785156 -33.421875 30.453125 -33.421875 L 44.8125 -33.421875 L 44.8125 -34.125 C 44.8125 -35.164062 44.660156 -36.097656 44.359375 -36.921875 C 44.054688 -37.753906 43.476562 -38.613281 42.625 -39.5 C 41.769531 -40.394531 40.410156 -41.082031 38.546875 -41.5625 C 36.679688 -42.050781 34.367188 -42.296875 31.609375 -42.296875 L 30.453125 -42.296875 C 23.898438 -42.296875 19.78125 -40.9375 18.09375 -38.21875 L 9.03125 -43.65625 C 12.71875 -49.8125 19.859375 -52.890625 30.453125 -52.890625 L 31.609375 -52.890625 C 35.335938 -52.890625 38.65625 -52.46875 41.5625 -51.625 C 44.46875 -50.78125 46.769531 -49.71875 48.46875 -48.4375 C 50.164062 -47.164062 51.550781 -45.664062 52.625 -43.9375 C 53.707031 -42.207031 54.441406 -40.550781 54.828125 -38.96875 C 55.210938 -37.382812 55.40625 -35.769531 55.40625 -34.125 L 55.40625 0 L 44.8125 0 L 44.8125 -2.421875 C 40.382812 0.0351562 35.984375 1.265625 31.609375 1.265625 L 30.453125 1.265625 C 26.648438 1.265625 23.171875 0.742188 20.015625 -0.296875 C 16.859375 -1.335938 14.335938 -2.671875 12.453125 -4.296875 C 10.566406 -5.929688 9.109375 -7.671875 8.078125 -9.515625 C 7.054688 -11.367188 6.546875 -13.171875 6.546875 -14.921875 Z M 30.453125 -22.84375 C 28.296875 -22.84375 26.359375 -22.65625 24.640625 -22.28125 C 22.929688 -21.914062 21.640625 -21.492188 20.765625 -21.015625 C 19.890625 -20.546875 19.148438 -20.023438 18.546875 -19.453125 C 17.941406 -18.890625 17.5625 -18.457031 17.40625 -18.15625 C 17.257812 -17.851562 17.171875 -17.632812 17.140625 -17.5 L 17.140625 -14.921875 C 17.140625 -14.078125 17.332031 -13.335938 17.71875 -12.703125 C 18.101562 -12.066406 18.765625 -11.488281 19.703125 -10.96875 C 20.648438 -10.445312 22.019531 -10.039062 23.8125 -9.75 C 25.613281 -9.46875 27.828125 -9.328125 30.453125 -9.328125 L 31.609375 -9.328125 C 33.253906 -9.328125 34.816406 -9.535156 36.296875 -9.953125 C 37.773438 -10.378906 39.019531 -10.898438 40.03125 -11.515625 C 41.039062 -12.140625 41.914062 -12.796875 42.65625 -13.484375 C 43.394531 -14.171875 43.9375 -14.773438 44.28125 -15.296875 C 44.632812 -15.816406 44.8125 -16.195312 44.8125 -16.4375 L 44.8125 -22.84375 Z M 30.453125 -22.84375 "/></g></g></g><g fill="#ffffff" fill-opacity="1"><g transform="translate(347.024432, 670.495103)"><g><path d="M 36.453125 1.265625 L 35.296875 1.265625 C 30.554688 1.265625 26.410156 -0.394531 22.859375 -3.71875 C 19.316406 -7.050781 17.546875 -11.085938 17.546875 -15.828125 L 19.265625 -40.28125 L 6.609375 -40.28125 L 6.609375 -50.875 L 20.0625 -50.875 L 21.625 -71.84375 L 32.21875 -71.84375 L 30.65625 -50.875 L 45.421875 -50.875 L 45.421875 -40.28125 L 29.890625 -40.28125 L 28.125 -16.4375 L 28.125 -15.828125 C 28.125 -14.148438 28.828125 -12.644531 30.234375 -11.3125 C 31.648438 -9.988281 33.335938 -9.328125 35.296875 -9.328125 L 36.453125 -9.328125 C 38.160156 -9.328125 39.550781 -9.820312 40.625 -10.8125 C 41.707031 -11.800781 42.484375 -12.800781 42.953125 -13.8125 L 52.640625 -9.484375 C 51.390625 -6.691406 49.351562 -4.203125 46.53125 -2.015625 C 43.707031 0.171875 40.347656 1.265625 36.453125 1.265625 Z M 36.453125 1.265625 "/></g></g></g><g fill="#ffffff" fill-opacity="1"><g transform="translate(408.980418, 670.495103)"><g><path d="M 6.546875 -17.640625 C 6.546875 -18.816406 6.75 -20.039062 7.15625 -21.3125 C 7.5625 -22.59375 8.328125 -23.972656 9.453125 -25.453125 C 10.578125 -26.929688 11.988281 -28.242188 13.6875 -29.390625 C 15.382812 -30.535156 17.6875 -31.492188 20.59375 -32.265625 C 23.5 -33.035156 26.785156 -33.421875 30.453125 -33.421875 L 44.8125 -33.421875 L 44.8125 -34.125 C 44.8125 -35.164062 44.660156 -36.097656 44.359375 -36.921875 C 44.054688 -37.753906 43.476562 -38.613281 42.625 -39.5 C 41.769531 -40.394531 40.410156 -41.082031 38.546875 -41.5625 C 36.679688 -42.050781 34.367188 -42.296875 31.609375 -42.296875 L 30.453125 -42.296875 C 23.898438 -42.296875 19.78125 -40.9375 18.09375 -38.21875 L 9.03125 -43.65625 C 12.71875 -49.8125 19.859375 -52.890625 30.453125 -52.890625 L 31.609375 -52.890625 C 35.335938 -52.890625 38.65625 -52.46875 41.5625 -51.625 C 44.46875 -50.78125 46.769531 -49.71875 48.46875 -48.4375 C 50.164062 -47.164062 51.550781 -45.664062 52.625 -43.9375 C 53.707031 -42.207031 54.441406 -40.550781 54.828125 -38.96875 C 55.210938 -37.382812 55.40625 -35.769531 55.40625 -34.125 L 55.40625 0 L 44.8125 0 L 44.8125 -2.421875 C 40.382812 0.0351562 35.984375 1.265625 31.609375 1.265625 L 30.453125 1.265625 C 26.648438 1.265625 23.171875 0.742188 20.015625 -0.296875 C 16.859375 -1.335938 14.335938 -2.671875 12.453125 -4.296875 C 10.566406 -5.929688 9.109375 -7.671875 8.078125 -9.515625 C 7.054688 -11.367188 6.546875 -13.171875 6.546875 -14.921875 Z M 30.453125 -22.84375 C 28.296875 -22.84375 26.359375 -22.65625 24.640625 -22.28125 C 22.929688 -21.914062 21.640625 -21.492188 20.765625 -21.015625 C 19.890625 -20.546875 19.148438 -20.023438 18.546875 -19.453125 C 17.941406 -18.890625 17.5625 -18.457031 17.40625 -18.15625 C 17.257812 -17.851562 17.171875 -17.632812 17.140625 -17.5 L 17.140625 -14.921875 C 17.140625 -14.078125 17.332031 -13.335938 17.71875 -12.703125 C 18.101562 -12.066406 18.765625 -11.488281 19.703125 -10.96875 C 20.648438 -10.445312 22.019531 -10.039062 23.8125 -9.75 C 25.613281 -9.46875 27.828125 -9.328125 30.453125 -9.328125 L 31.609375 -9.328125 C 33.253906 -9.328125 34.816406 -9.535156 36.296875 -9.953125 C 37.773438 -10.378906 39.019531 -10.898438 40.03125 -11.515625 C 41.039062 -12.140625 41.914062 -12.796875 42.65625 -13.484375 C 43.394531 -14.171875 43.9375 -14.773438 44.28125 -15.296875 C 44.632812 -15.816406 44.8125 -16.195312 44.8125 -16.4375 L 44.8125 -22.84375 Z M 30.453125 -22.84375 "/></g></g></g><g fill="#ffffff" fill-opacity="1"><g transform="translate(470.936405, 670.495103)"><g><path d="M 31.609375 -9.328125 C 35.503906 -9.328125 38.675781 -9.742188 41.125 -10.578125 C 43.582031 -11.421875 44.8125 -12.484375 44.8125 -13.765625 L 44.8125 -15.9375 C 44.8125 -16.375 44.535156 -16.9375 43.984375 -17.625 C 43.429688 -18.3125 42.734375 -18.769531 41.890625 -19 L 19.515625 -24.859375 C 17.597656 -25.359375 15.898438 -26.132812 14.421875 -27.1875 C 12.941406 -28.25 11.796875 -29.425781 10.984375 -30.71875 C 10.179688 -32.019531 9.585938 -33.304688 9.203125 -34.578125 C 8.816406 -35.859375 8.625 -37.085938 8.625 -38.265625 L 8.625 -38.8125 C 8.625 -40.0625 8.789062 -41.273438 9.125 -42.453125 C 9.457031 -43.628906 10.109375 -44.867188 11.078125 -46.171875 C 12.054688 -47.484375 13.316406 -48.617188 14.859375 -49.578125 C 16.410156 -50.535156 18.519531 -51.328125 21.1875 -51.953125 C 23.863281 -52.578125 26.953125 -52.890625 30.453125 -52.890625 L 31.609375 -52.890625 C 35.910156 -52.890625 40.09375 -52 44.15625 -50.21875 C 48.226562 -48.4375 51.289062 -45.914062 53.34375 -42.65625 L 44.359375 -37 C 43.523438 -38.3125 41.9375 -39.519531 39.59375 -40.625 C 37.257812 -41.738281 34.597656 -42.296875 31.609375 -42.296875 L 30.453125 -42.296875 C 28.804688 -42.296875 27.289062 -42.191406 25.90625 -41.984375 C 24.53125 -41.785156 23.445312 -41.546875 22.65625 -41.265625 C 21.875 -40.984375 21.203125 -40.671875 20.640625 -40.328125 C 20.085938 -39.992188 19.707031 -39.703125 19.5 -39.453125 C 19.300781 -39.203125 19.203125 -38.988281 19.203125 -38.8125 L 19.203125 -38.265625 C 19.203125 -37.859375 19.425781 -37.300781 19.875 -36.59375 C 20.332031 -35.894531 21.050781 -35.410156 22.03125 -35.140625 L 44.515625 -29.296875 C 47.578125 -28.515625 50.15625 -26.835938 52.25 -24.265625 C 54.351562 -21.703125 55.40625 -18.925781 55.40625 -15.9375 L 55.40625 -13.765625 C 55.40625 -11.140625 54.765625 -8.832031 53.484375 -6.84375 C 52.210938 -4.863281 50.445312 -3.296875 48.1875 -2.140625 C 45.9375 -0.984375 43.425781 -0.128906 40.65625 0.421875 C 37.882812 0.984375 34.867188 1.265625 31.609375 1.265625 L 28.390625 1.265625 C 26.503906 1.265625 24.5625 1.023438 22.5625 0.546875 C 20.5625 0.078125 18.609375 -0.65625 16.703125 -1.65625 C 14.804688 -2.664062 13.101562 -3.859375 11.59375 -5.234375 C 10.082031 -6.617188 8.863281 -8.3125 7.9375 -10.3125 C 7.007812 -12.3125 6.546875 -14.4375 6.546875 -16.6875 L 17.140625 -16.6875 C 17.140625 -16.21875 17.28125 -15.640625 17.5625 -14.953125 C 17.851562 -14.265625 18.347656 -13.460938 19.046875 -12.546875 C 19.753906 -11.640625 20.921875 -10.875 22.546875 -10.25 C 24.179688 -9.632812 26.128906 -9.328125 28.390625 -9.328125 Z M 31.609375 -9.328125 "/></g></g></g><g fill="#ffffff" fill-opacity="1"><g transform="translate(532.892376, 670.495103)"><g><path d="M 17.140625 -22.84375 L 17.140625 -19.0625 C 17.140625 -18.019531 17.390625 -16.957031 17.890625 -15.875 C 18.398438 -14.800781 19.148438 -13.757812 20.140625 -12.75 C 21.128906 -11.75 22.519531 -10.925781 24.3125 -10.28125 C 26.113281 -9.644531 28.160156 -9.328125 30.453125 -9.328125 L 31.609375 -9.328125 C 35.472656 -9.328125 38.421875 -9.847656 40.453125 -10.890625 C 42.492188 -11.929688 43.796875 -13.175781 44.359375 -14.625 L 54.25 -10.78125 C 52.800781 -7.050781 50.132812 -4.109375 46.25 -1.953125 C 42.375 0.191406 37.492188 1.265625 31.609375 1.265625 L 30.453125 1.265625 C 26.816406 1.265625 23.46875 0.6875 20.40625 -0.46875 C 17.351562 -1.632812 14.832031 -3.175781 12.84375 -5.09375 C 10.863281 -7.007812 9.316406 -9.175781 8.203125 -11.59375 C 7.097656 -14.007812 6.546875 -16.5 6.546875 -19.0625 L 6.546875 -32.71875 C 6.546875 -38.601562 8.671875 -43.4375 12.921875 -47.21875 C 17.179688 -51 23.023438 -52.890625 30.453125 -52.890625 L 31.609375 -52.890625 C 39.035156 -52.890625 44.859375 -51 49.078125 -47.21875 C 53.296875 -43.4375 55.40625 -38.601562 55.40625 -32.71875 L 55.40625 -22.84375 Z M 17.140625 -33.421875 L 44.8125 -33.421875 C 44.71875 -35.109375 44.265625 -36.554688 43.453125 -37.765625 C 42.648438 -38.972656 41.582031 -39.894531 40.25 -40.53125 C 38.925781 -41.164062 37.554688 -41.617188 36.140625 -41.890625 C 34.734375 -42.160156 33.222656 -42.296875 31.609375 -42.296875 L 30.453125 -42.296875 C 28.867188 -42.296875 27.367188 -42.160156 25.953125 -41.890625 C 24.546875 -41.617188 23.171875 -41.164062 21.828125 -40.53125 C 20.484375 -39.894531 19.390625 -38.972656 18.546875 -37.765625 C 17.710938 -36.554688 17.242188 -35.109375 17.140625 -33.421875 Z M 17.140625 -33.421875 "/></g></g></g><g fill="#ffffff" fill-opacity="1"><g transform="translate(594.848348, 670.495103)"><g><path d="M 36.453125 1.265625 L 35.296875 1.265625 C 30.554688 1.265625 26.410156 -0.394531 22.859375 -3.71875 C 19.316406 -7.050781 17.546875 -11.085938 17.546875 -15.828125 L 19.265625 -40.28125 L 6.609375 -40.28125 L 6.609375 -50.875 L 20.0625 -50.875 L 21.625 -71.84375 L 32.21875 -71.84375 L 30.65625 -50.875 L 45.421875 -50.875 L 45.421875 -40.28125 L 29.890625 -40.28125 L 28.125 -16.4375 L 28.125 -15.828125 C 28.125 -14.148438 28.828125 -12.644531 30.234375 -11.3125 C 31.648438 -9.988281 33.335938 -9.328125 35.296875 -9.328125 L 36.453125 -9.328125 C 38.160156 -9.328125 39.550781 -9.820312 40.625 -10.8125 C 41.707031 -11.800781 42.484375 -12.800781 42.953125 -13.8125 L 52.640625 -9.484375 C 51.390625 -6.691406 49.351562 -4.203125 46.53125 -2.015625 C 43.707031 0.171875 40.347656 1.265625 36.453125 1.265625 Z M 36.453125 1.265625 "/></g></g></g><g fill="#ffffff" fill-opacity="1"><g transform="translate(656.80432, 670.495103)"><g><path d="M 49.109375 3.484375 C 49.109375 8.253906 47.628906 12.21875 44.671875 15.375 C 41.710938 18.53125 37.507812 20.109375 32.0625 20.109375 C 21.84375 20.109375 16.210938 14.582031 15.171875 3.53125 L 25.765625 3.53125 C 25.960938 5.238281 26.648438 6.664062 27.828125 7.8125 C 29.003906 8.957031 30.414062 9.53125 32.0625 9.53125 C 33.8125 9.53125 35.320312 8.945312 36.59375 7.78125 C 37.875 6.625 38.515625 5.191406 38.515625 3.484375 L 38.515625 -41.03125 L 21.734375 -41.03125 L 21.734375 -51.625 L 49.109375 -51.625 Z M 34.890625 -59.75 C 33.378906 -61.28125 32.625 -63.15625 32.625 -65.375 C 32.625 -67.59375 33.378906 -69.46875 34.890625 -71 C 36.398438 -72.53125 38.265625 -73.296875 40.484375 -73.296875 C 42.703125 -73.296875 44.582031 -72.53125 46.125 -71 C 47.675781 -69.46875 48.453125 -67.59375 48.453125 -65.375 C 48.453125 -63.15625 47.675781 -61.28125 46.125 -59.75 C 44.582031 -58.226562 42.703125 -57.46875 40.484375 -57.46875 C 38.265625 -57.46875 36.398438 -58.226562 34.890625 -59.75 Z M 34.890625 -59.75 "/></g></g></g><g fill="#ffffff" fill-opacity="1"><g transform="translate(718.760292, 670.495103)"><g><path d="M 31.609375 -9.328125 C 35.503906 -9.328125 38.675781 -9.742188 41.125 -10.578125 C 43.582031 -11.421875 44.8125 -12.484375 44.8125 -13.765625 L 44.8125 -15.9375 C 44.8125 -16.375 44.535156 -16.9375 43.984375 -17.625 C 43.429688 -18.3125 42.734375 -18.769531 41.890625 -19 L 19.515625 -24.859375 C 17.597656 -25.359375 15.898438 -26.132812 14.421875 -27.1875 C 12.941406 -28.25 11.796875 -29.425781 10.984375 -30.71875 C 10.179688 -32.019531 9.585938 -33.304688 9.203125 -34.578125 C 8.816406 -35.859375 8.625 -37.085938 8.625 -38.265625 L 8.625 -38.8125 C 8.625 -40.0625 8.789062 -41.273438 9.125 -42.453125 C 9.457031 -43.628906 10.109375 -44.867188 11.078125 -46.171875 C 12.054688 -47.484375 13.316406 -48.617188 14.859375 -49.578125 C 16.410156 -50.535156 18.519531 -51.328125 21.1875 -51.953125 C 23.863281 -52.578125 26.953125 -52.890625 30.453125 -52.890625 L 31.609375 -52.890625 C 35.910156 -52.890625 40.09375 -52 44.15625 -50.21875 C 48.226562 -48.4375 51.289062 -45.914062 53.34375 -42.65625 L 44.359375 -37 C 43.523438 -38.3125 41.9375 -39.519531 39.59375 -40.625 C 37.257812 -41.738281 34.597656 -42.296875 31.609375 -42.296875 L 30.453125 -42.296875 C 28.804688 -42.296875 27.289062 -42.191406 25.90625 -41.984375 C 24.53125 -41.785156 23.445312 -41.546875 22.65625 -41.265625 C 21.875 -40.984375 21.203125 -40.671875 20.640625 -40.328125 C 20.085938 -39.992188 19.707031 -39.703125 19.5 -39.453125 C 19.300781 -39.203125 19.203125 -38.988281 19.203125 -38.8125 L 19.203125 -38.265625 C 19.203125 -37.859375 19.425781 -37.300781 19.875 -36.59375 C 20.332031 -35.894531 21.050781 -35.410156 22.03125 -35.140625 L 44.515625 -29.296875 C 47.578125 -28.515625 50.15625 -26.835938 52.25 -24.265625 C 54.351562 -21.703125 55.40625 -18.925781 55.40625 -15.9375 L 55.40625 -13.765625 C 55.40625 -11.140625 54.765625 -8.832031 53.484375 -6.84375 C 52.210938 -4.863281 50.445312 -3.296875 48.1875 -2.140625 C 45.9375 -0.984375 43.425781 -0.128906 40.65625 0.421875 C 37.882812 0.984375 34.867188 1.265625 31.609375 1.265625 L 28.390625 1.265625 C 26.503906 1.265625 24.5625 1.023438 22.5625 0.546875 C 20.5625 0.078125 18.609375 -0.65625 16.703125 -1.65625 C 14.804688 -2.664062 13.101562 -3.859375 11.59375 -5.234375 C 10.082031 -6.617188 8.863281 -8.3125 7.9375 -10.3125 C 7.007812 -12.3125 6.546875 -14.4375 6.546875 -16.6875 L 17.140625 -16.6875 C 17.140625 -16.21875 17.28125 -15.640625 17.5625 -14.953125 C 17.851562 -14.265625 18.347656 -13.460938 19.046875 -12.546875 C 19.753906 -11.640625 20.921875 -10.875 22.546875 -10.25 C 24.179688 -9.632812 26.128906 -9.328125 28.390625 -9.328125 Z M 31.609375 -9.328125 "/></g></g></g><g fill="#ffffff" fill-opacity="1"><g transform="translate(780.716264, 670.495103)"><g><path d="M 32.265625 -42.25 L 29.59375 -42.25 C 21.289062 -42.25 17.140625 -37.539062 17.140625 -28.125 L 17.140625 -24.40625 C 17.140625 -14.351562 21.320312 -9.328125 29.6875 -9.328125 L 32.0625 -9.328125 C 36.164062 -9.328125 39.316406 -10.507812 41.515625 -12.875 C 43.710938 -15.25 44.8125 -19.070312 44.8125 -24.34375 L 44.8125 -28.1875 C 44.8125 -37.5625 40.628906 -42.25 32.265625 -42.25 Z M 55.40625 -28.1875 L 55.40625 -24.34375 C 55.40625 -20.6875 54.925781 -17.316406 53.96875 -14.234375 C 53.007812 -11.160156 51.597656 -8.457031 49.734375 -6.125 C 47.867188 -3.789062 45.429688 -1.972656 42.421875 -0.671875 C 39.410156 0.617188 35.957031 1.265625 32.0625 1.265625 L 29.6875 1.265625 C 25.863281 1.265625 22.453125 0.601562 19.453125 -0.71875 C 16.460938 -2.050781 14.035156 -3.894531 12.171875 -6.25 C 10.304688 -8.601562 8.898438 -11.316406 7.953125 -14.390625 C 7.015625 -17.460938 6.546875 -20.800781 6.546875 -24.40625 L 6.546875 -28.125 C 6.546875 -35.550781 8.53125 -41.523438 12.5 -46.046875 C 16.46875 -50.566406 22.164062 -52.828125 29.59375 -52.828125 L 32.265625 -52.828125 C 39.691406 -52.828125 45.40625 -50.566406 49.40625 -46.046875 C 53.40625 -41.523438 55.40625 -35.570312 55.40625 -28.1875 Z M 55.40625 -28.1875 "/></g></g></g><g fill="#ffffff" fill-opacity="1"><g transform="translate(842.672236, 670.495103)"><g><path d="M 44.8125 -33.671875 C 44.8125 -39.421875 40.410156 -42.296875 31.609375 -42.296875 L 30.453125 -42.296875 C 28.128906 -42.296875 25.890625 -41.410156 23.734375 -39.640625 C 21.585938 -37.878906 19.953125 -35.972656 18.828125 -33.921875 C 17.703125 -31.878906 17.140625 -30.203125 17.140625 -28.890625 L 17.140625 0 L 6.546875 0 L 6.546875 -51.625 L 17.140625 -51.625 L 17.140625 -48 C 21.304688 -51.257812 25.742188 -52.890625 30.453125 -52.890625 L 31.609375 -52.890625 C 39.109375 -52.890625 44.945312 -51.148438 49.125 -47.671875 C 53.3125 -44.191406 55.40625 -39.523438 55.40625 -33.671875 L 55.40625 0 L 44.8125 0 Z M 44.8125 -33.671875 "/></g></g></g><g fill="#ffffff" fill-opacity="1"><g transform="translate(904.630236, 670.495103)"><g><path d="M 33.828125 -5.140625 L 33.734375 -5.140625 L 33.734375 -5.75 L 33.625 -5.75 L 33.625 -5.046875 L 33.828125 -5.046875 Z M 33.421875 -5.140625 L 33.328125 -5.140625 L 33.328125 -5.453125 L 33.421875 -5.453125 Z M 30.296875 -6.046875 L 30.40625 -6.046875 L 30.40625 -6.359375 L 30.609375 -6.359375 L 30.609375 -6.046875 L 30.703125 -6.046875 L 30.703125 -6.765625 L 30.40625 -6.765625 L 30.296875 -6.5625 Z M 30.453125 -6.65625 L 30.609375 -6.65625 L 30.609375 -6.453125 L 30.40625 -6.453125 L 30.40625 -6.5625 Z M 31 -6.453125 L 31 -6.046875 L 31.109375 -6.046875 L 31.109375 -6.453125 L 31.0625 -6.5625 L 30.796875 -6.5625 L 30.796875 -6.046875 L 30.90625 -6.046875 L 30.90625 -6.453125 Z M 31.40625 -6.453125 L 31.40625 -6.046875 L 31.515625 -6.046875 L 31.515625 -6.453125 L 31.453125 -6.5625 L 31.203125 -6.5625 L 31.203125 -6.046875 L 31.3125 -6.046875 L 31.3125 -6.453125 Z M 31.71875 -6.25 L 31.8125 -6.25 L 31.8125 -6.15625 L 31.71875 -6.15625 Z M 31.65625 -6.046875 L 31.90625 -6.046875 L 31.90625 -6.453125 L 31.859375 -6.5625 L 31.609375 -6.5625 L 31.609375 -6.453125 L 31.8125 -6.453125 L 31.8125 -6.359375 L 31.65625 -6.359375 L 31.609375 -6.25 L 31.609375 -6.15625 Z M 32.21875 -5.453125 L 32.21875 -5.046875 L 32.3125 -5.046875 L 32.3125 -5.453125 L 32.265625 -5.546875 L 32.109375 -5.546875 L 32.109375 -5.75 L 32.015625 -5.75 L 32.015625 -5.046875 L 32.109375 -5.046875 L 32.109375 -5.453125 Z M 31.859375 -5.453125 L 31.609375 -5.453125 L 31.609375 -5.65625 L 31.90625 -5.65625 L 31.90625 -5.75 L 31.5625 -5.75 L 31.515625 -5.65625 L 31.515625 -5.453125 L 31.5625 -5.34375 L 31.8125 -5.34375 L 31.8125 -5.140625 L 31.515625 -5.140625 L 31.515625 -5.046875 L 31.859375 -5.046875 L 31.90625 -5.140625 L 31.90625 -5.34375 Z M 32.625 -5.140625 L 32.515625 -5.140625 L 32.515625 -5.546875 L 32.421875 -5.546875 L 32.421875 -5.140625 L 32.46875 -5.046875 L 32.71875 -5.046875 L 32.71875 -5.546875 L 32.625 -5.546875 Z M 32.921875 -5.140625 L 32.921875 -5.453125 L 33.015625 -5.453125 L 33.015625 -5.140625 Z M 32.875 -5.546875 L 32.8125 -5.453125 L 32.8125 -5.140625 L 32.875 -5.046875 L 33.015625 -5.046875 L 33.015625 -4.9375 L 32.8125 -4.9375 L 32.8125 -4.84375 L 33.078125 -4.84375 L 33.125 -4.9375 L 33.125 -5.546875 Z M 33.28125 -5.546875 L 33.21875 -5.453125 L 33.21875 -5.140625 L 33.28125 -5.046875 L 33.46875 -5.046875 L 33.53125 -5.140625 L 33.53125 -5.453125 L 33.46875 -5.546875 Z M 36.234375 -15.203125 C 37.648438 -13.773438 38.359375 -12.050781 38.359375 -10.03125 C 38.359375 -8.019531 37.660156 -6.300781 36.265625 -4.875 C 34.878906 -3.445312 33.109375 -2.734375 30.953125 -2.734375 C 28.867188 -2.734375 27.117188 -3.445312 25.703125 -4.875 C 24.296875 -6.300781 23.59375 -8.019531 23.59375 -10.03125 C 23.59375 -12.019531 24.28125 -13.734375 25.65625 -15.171875 C 27.039062 -16.617188 28.804688 -17.34375 30.953125 -17.34375 C 33.066406 -17.34375 34.828125 -16.628906 36.234375 -15.203125 Z M 33.828125 -41.328125 L 33.734375 -41.328125 L 33.734375 -41.9375 L 33.625 -41.9375 L 33.625 -41.234375 L 33.828125 -41.234375 Z M 33.421875 -41.328125 L 33.328125 -41.328125 L 33.328125 -41.640625 L 33.421875 -41.640625 Z M 30.296875 -42.234375 L 30.40625 -42.234375 L 30.40625 -42.546875 L 30.609375 -42.546875 L 30.609375 -42.234375 L 30.703125 -42.234375 L 30.703125 -42.953125 L 30.40625 -42.953125 L 30.296875 -42.75 Z M 30.453125 -42.84375 L 30.609375 -42.84375 L 30.609375 -42.640625 L 30.40625 -42.640625 L 30.40625 -42.75 Z M 31 -42.640625 L 31 -42.234375 L 31.109375 -42.234375 L 31.109375 -42.640625 L 31.0625 -42.75 L 30.796875 -42.75 L 30.796875 -42.234375 L 30.90625 -42.234375 L 30.90625 -42.640625 Z M 31.40625 -42.640625 L 31.40625 -42.234375 L 31.515625 -42.234375 L 31.515625 -42.640625 L 31.453125 -42.75 L 31.203125 -42.75 L 31.203125 -42.234375 L 31.3125 -42.234375 L 31.3125 -42.640625 Z M 31.71875 -42.4375 L 31.8125 -42.4375 L 31.8125 -42.34375 L 31.71875 -42.34375 Z M 31.65625 -42.234375 L 31.90625 -42.234375 L 31.90625 -42.640625 L 31.859375 -42.75 L 31.609375 -42.75 L 31.609375 -42.640625 L 31.8125 -42.640625 L 31.8125 -42.546875 L 31.65625 -42.546875 L 31.609375 -42.4375 L 31.609375 -42.34375 Z M 32.21875 -41.640625 L 32.21875 -41.234375 L 32.3125 -41.234375 L 32.3125 -41.640625 L 32.265625 -41.734375 L 32.109375 -41.734375 L 32.109375 -41.9375 L 32.015625 -41.9375 L 32.015625 -41.234375 L 32.109375 -41.234375 L 32.109375 -41.640625 Z M 31.859375 -41.640625 L 31.609375 -41.640625 L 31.609375 -41.84375 L 31.90625 -41.84375 L 31.90625 -41.9375 L 31.5625 -41.9375 L 31.515625 -41.84375 L 31.515625 -41.640625 L 31.5625 -41.53125 L 31.8125 -41.53125 L 31.8125 -41.328125 L 31.515625 -41.328125 L 31.515625 -41.234375 L 31.859375 -41.234375 L 31.90625 -41.328125 L 31.90625 -41.53125 Z M 32.625 -41.328125 L 32.515625 -41.328125 L 32.515625 -41.734375 L 32.421875 -41.734375 L 32.421875 -41.328125 L 32.46875 -41.234375 L 32.71875 -41.234375 L 32.71875 -41.734375 L 32.625 -41.734375 Z M 32.921875 -41.328125 L 32.921875 -41.640625 L 33.015625 -41.640625 L 33.015625 -41.328125 Z M 32.875 -41.734375 L 32.8125 -41.640625 L 32.8125 -41.328125 L 32.875 -41.234375 L 33.015625 -41.234375 L 33.015625 -41.125 L 32.8125 -41.125 L 32.8125 -41.03125 L 33.078125 -41.03125 L 33.125 -41.125 L 33.125 -41.734375 Z M 33.28125 -41.734375 L 33.21875 -41.640625 L 33.21875 -41.328125 L 33.28125 -41.234375 L 33.46875 -41.234375 L 33.53125 -41.328125 L 33.53125 -41.640625 L 33.46875 -41.734375 Z M 36.234375 -51.390625 C 37.648438 -49.960938 38.359375 -48.238281 38.359375 -46.21875 C 38.359375 -44.207031 37.660156 -42.488281 36.265625 -41.0625 C 34.878906 -39.632812 33.109375 -38.921875 30.953125 -38.921875 C 28.867188 -38.921875 27.117188 -39.632812 25.703125 -41.0625 C 24.296875 -42.488281 23.59375 -44.207031 23.59375 -46.21875 C 23.59375 -48.207031 24.28125 -49.921875 25.65625 -51.359375 C 27.039062 -52.804688 28.804688 -53.53125 30.953125 -53.53125 C 33.066406 -53.53125 34.828125 -52.816406 36.234375 -51.390625 Z M 36.234375 -51.390625 "/></g></g></g><g fill="#18bc9c" fill-opacity="1"><g transform="translate(223.11246, 810.171803)"><g/></g></g><g fill="#18bc9c" fill-opacity="1"><g transform="translate(282.787639, 810.171803)"><g/></g></g><g fill="#18bc9c" fill-opacity="1"><g transform="translate(342.462817, 810.171803)"><g/></g></g><g fill="#18bc9c" fill-opacity="1"><g transform="translate(402.147469, 810.171803)"><g><path d="M 26.609375 1.21875 L 3.78125 -49.734375 L 14.953125 -49.734375 L 29.90625 -16.359375 L 44.875 -49.734375 L 56.046875 -49.734375 L 33.21875 1.21875 Z M 26.609375 1.21875 "/></g></g></g><g fill="#18bc9c" fill-opacity="1"><g transform="translate(461.822648, 810.171803)"><g><path d="M 14.8125 -49.734375 L 35.015625 -49.734375 L 35.015625 -10.203125 L 48.265625 -10.203125 L 48.265625 0 L 11.40625 0 L 11.40625 -10.203125 L 24.8125 -10.203125 L 24.8125 -39.53125 L 14.8125 -39.53125 Z M 24.8125 -57.5625 C 23.351562 -59.03125 22.625 -60.832031 22.625 -62.96875 C 22.625 -65.113281 23.351562 -66.921875 24.8125 -68.390625 C 26.269531 -69.867188 28.066406 -70.609375 30.203125 -70.609375 C 32.335938 -70.609375 34.148438 -69.867188 35.640625 -68.390625 C 37.128906 -66.921875 37.875 -65.113281 37.875 -62.96875 C 37.875 -60.832031 37.128906 -59.03125 35.640625 -57.5625 C 34.148438 -56.09375 32.335938 -55.359375 30.203125 -55.359375 C 28.066406 -55.359375 26.269531 -56.09375 24.8125 -57.5625 Z M 24.8125 -57.5625 "/></g></g></g><g fill="#18bc9c" fill-opacity="1"><g transform="translate(521.497827, 810.171803)"><g><path d="M 16.515625 -22 L 16.515625 -18.359375 C 16.515625 -17.347656 16.753906 -16.328125 17.234375 -15.296875 C 17.722656 -14.265625 18.441406 -13.257812 19.390625 -12.28125 C 20.347656 -11.3125 21.691406 -10.519531 23.421875 -9.90625 C 25.160156 -9.289062 27.128906 -8.984375 29.328125 -8.984375 L 30.453125 -8.984375 C 34.171875 -8.984375 37.007812 -9.484375 38.96875 -10.484375 C 40.925781 -11.492188 42.179688 -12.691406 42.734375 -14.078125 L 52.25 -10.390625 C 50.851562 -6.796875 48.285156 -3.960938 44.546875 -1.890625 C 40.816406 0.179688 36.117188 1.21875 30.453125 1.21875 L 29.328125 1.21875 C 25.835938 1.21875 22.617188 0.660156 19.671875 -0.453125 C 16.722656 -1.578125 14.289062 -3.0625 12.375 -4.90625 C 10.46875 -6.75 8.976562 -8.835938 7.90625 -11.171875 C 6.84375 -13.503906 6.3125 -15.898438 6.3125 -18.359375 L 6.3125 -31.515625 C 6.3125 -37.179688 8.359375 -41.832031 12.453125 -45.46875 C 16.546875 -49.113281 22.171875 -50.9375 29.328125 -50.9375 L 30.453125 -50.9375 C 37.609375 -50.9375 43.21875 -49.113281 47.28125 -45.46875 C 51.34375 -41.832031 53.375 -37.179688 53.375 -31.515625 L 53.375 -22 Z M 16.515625 -32.203125 L 43.171875 -32.203125 C 43.078125 -33.816406 42.640625 -35.207031 41.859375 -36.375 C 41.078125 -37.539062 40.046875 -38.429688 38.765625 -39.046875 C 37.492188 -39.660156 36.175781 -40.097656 34.8125 -40.359375 C 33.457031 -40.617188 32.003906 -40.75 30.453125 -40.75 L 29.328125 -40.75 C 27.804688 -40.75 26.363281 -40.617188 25 -40.359375 C 23.644531 -40.097656 22.316406 -39.660156 21.015625 -39.046875 C 19.722656 -38.429688 18.671875 -37.539062 17.859375 -36.375 C 17.054688 -35.207031 16.609375 -33.816406 16.515625 -32.203125 Z M 16.515625 -32.203125 "/></g></g></g><g fill="#18bc9c" fill-opacity="1"><g transform="translate(581.173006, 810.171803)"><g><path d="M 10.53125 0 L 2.90625 -49.734375 L 13.25 -49.734375 L 17.34375 -22.921875 L 26.125 -44.625 L 33.703125 -44.625 L 42.484375 -22.921875 L 46.625 -49.734375 L 56.96875 -49.734375 L 49.296875 0 C 49.296875 0 46.460938 0 40.796875 0 L 29.90625 -26.8125 L 19.03125 0 C 19.03125 0 16.195312 0 10.53125 0 Z M 10.53125 0 "/></g></g></g><g fill="#18bc9c" fill-opacity="1"><g transform="translate(640.848184, 810.171803)"><g><path d="M 16.515625 -22 L 16.515625 -18.359375 C 16.515625 -17.347656 16.753906 -16.328125 17.234375 -15.296875 C 17.722656 -14.265625 18.441406 -13.257812 19.390625 -12.28125 C 20.347656 -11.3125 21.691406 -10.519531 23.421875 -9.90625 C 25.160156 -9.289062 27.128906 -8.984375 29.328125 -8.984375 L 30.453125 -8.984375 C 34.171875 -8.984375 37.007812 -9.484375 38.96875 -10.484375 C 40.925781 -11.492188 42.179688 -12.691406 42.734375 -14.078125 L 52.25 -10.390625 C 50.851562 -6.796875 48.285156 -3.960938 44.546875 -1.890625 C 40.816406 0.179688 36.117188 1.21875 30.453125 1.21875 L 29.328125 1.21875 C 25.835938 1.21875 22.617188 0.660156 19.671875 -0.453125 C 16.722656 -1.578125 14.289062 -3.0625 12.375 -4.90625 C 10.46875 -6.75 8.976562 -8.835938 7.90625 -11.171875 C 6.84375 -13.503906 6.3125 -15.898438 6.3125 -18.359375 L 6.3125 -31.515625 C 6.3125 -37.179688 8.359375 -41.832031 12.453125 -45.46875 C 16.546875 -49.113281 22.171875 -50.9375 29.328125 -50.9375 L 30.453125 -50.9375 C 37.609375 -50.9375 43.21875 -49.113281 47.28125 -45.46875 C 51.34375 -41.832031 53.375 -37.179688 53.375 -31.515625 L 53.375 -22 Z M 16.515625 -32.203125 L 43.171875 -32.203125 C 43.078125 -33.816406 42.640625 -35.207031 41.859375 -36.375 C 41.078125 -37.539062 40.046875 -38.429688 38.765625 -39.046875 C 37.492188 -39.660156 36.175781 -40.097656 34.8125 -40.359375 C 33.457031 -40.617188 32.003906 -40.75 30.453125 -40.75 L 29.328125 -40.75 C 27.804688 -40.75 26.363281 -40.617188 25 -40.359375 C 23.644531 -40.097656 22.316406 -39.660156 21.015625 -39.046875 C 19.722656 -38.429688 18.671875 -37.539062 17.859375 -36.375 C 17.054688 -35.207031 16.609375 -33.816406 16.515625 -32.203125 Z M 16.515625 -32.203125 "/></g></g></g><g fill="#18bc9c" fill-opacity="1"><g transform="translate(700.523349, 810.171803)"><g><path d="M 35.109375 -40.75 L 34 -40.75 C 31.851562 -40.75 29.6875 -40.171875 27.5 -39.015625 C 25.320312 -37.867188 23.445312 -36.425781 21.875 -34.6875 C 20.300781 -32.957031 19.015625 -31.03125 18.015625 -28.90625 C 17.015625 -26.789062 16.515625 -24.8125 16.515625 -22.96875 L 16.515625 0 L 6.3125 0 L 6.3125 -49.734375 L 16.515625 -49.734375 L 16.515625 -43.65625 C 21.921875 -48.507812 27.75 -50.9375 34 -50.9375 L 35.109375 -50.9375 C 43.367188 -50.9375 49.296875 -48.59375 52.890625 -43.90625 L 44.828125 -37.6875 C 43.234375 -39.726562 39.992188 -40.75 35.109375 -40.75 Z M 35.109375 -40.75 "/></g></g></g><g fill="#ffffff" fill-opacity="1"><g transform="translate(293.768882, 541.967985)"><g><path d="M 23.796875 -22.375 C 23.796875 -27.1875 21.984375 -30.863281 18.359375 -33.40625 C 14.742188 -35.945312 9.476562 -37.21875 2.5625 -37.21875 L 2.5625 -57.03125 C 9.53125 -57.03125 14.8125 -58.242188 18.40625 -60.671875 C 22 -63.109375 23.796875 -66.59375 23.796875 -71.125 L 23.796875 -98.140625 C 23.796875 -106.597656 26.472656 -112.550781 31.828125 -116 C 37.191406 -119.457031 46.613281 -121.1875 60.09375 -121.1875 L 60.09375 -102.546875 C 54.625 -102.378906 50.851562 -101.328125 48.78125 -99.390625 C 46.707031 -97.453125 45.671875 -94.601562 45.671875 -90.84375 L 45.671875 -66.0625 C 45.335938 -55.675781 38.875 -49.539062 26.28125 -47.65625 L 26.28125 -46.671875 C 39.207031 -44.734375 45.671875 -38.875 45.671875 -29.09375 L 45.671875 -3.5625 C 45.671875 0.195312 46.691406 3.039062 48.734375 4.96875 C 50.785156 6.90625 54.570312 7.957031 60.09375 8.125 L 60.09375 26.859375 C 46.613281 26.859375 37.191406 25.128906 31.828125 21.671875 C 26.472656 18.222656 23.796875 12.242188 23.796875 3.734375 Z M 23.796875 -22.375 "/></g></g></g><g fill="#ffffff" fill-opacity="1"><g transform="translate(836.315306, 879.215392)"><g><path d="M -23.796875 22.375 C -23.796875 27.1875 -21.984375 30.863281 -18.359375 33.40625 C -14.742188 35.945312 -9.476562 37.21875 -2.5625 37.21875 L -2.5625 57.03125 C -9.53125 57.03125 -14.8125 58.242188 -18.40625 60.671875 C -22 63.109375 -23.796875 66.59375 -23.796875 71.125 L -23.796875 98.140625 C -23.796875 106.597656 -26.472656 112.550781 -31.828125 116 C -37.191406 119.457031 -46.613281 121.1875 -60.09375 121.1875 L -60.09375 102.546875 C -54.625 102.378906 -50.851562 101.328125 -48.78125 99.390625 C -46.707031 97.453125 -45.671875 94.601562 -45.671875 90.84375 L -45.671875 66.0625 C -45.335938 55.675781 -38.875 49.539062 -26.28125 47.65625 L -26.28125 46.671875 C -39.207031 44.734375 -45.671875 38.875 -45.671875 29.09375 L -45.671875 3.5625 C -45.671875 -0.195312 -46.691406 -3.039062 -48.734375 -4.96875 C -50.785156 -6.90625 -54.570312 -7.957031 -60.09375 -8.125 L -60.09375 -26.859375 C -46.613281 -26.859375 -37.191406 -25.128906 -31.828125 -21.671875 C -26.472656 -18.222656 -23.796875 -12.242188 -23.796875 -3.734375 Z M -23.796875 22.375 "/></g></g></g></svg>